<svg xmlns="http://www.w3.org/2000/svg" width="9.875" height="12.063" viewBox="0 0 9.875 12.063"><defs><style>.a{fill:#e28929}</style></defs><g transform="translate(7.885 0.75) rotate(90)"><path class="a" d="M8.375.75H0A.75.75,0,0,1-.75,0,.75.75,0,0,1,0-.75H8.375a.75.75,0,0,1,.75.75A.75.75,0,0,1,8.375.75Z" transform="translate(0 2.947)"/><path class="a" d="M8.375.75H0A.75.75,0,0,1-.75,0,.75.75,0,0,1,0-.75H8.375a.75.75,0,0,1,.75.75A.75.75,0,0,1,8.375.75Z" transform="translate(10.563 7.135) rotate(-90)"/><path class="a" d="M0,6.478a.748.748,0,0,1-.53-.22A.75.75,0,0,1-.53,5.2L1.8,2.864-.53.53A.75.75,0,0,1-.53-.53.75.75,0,0,1,.53-.53L3.394,2.334a.75.75,0,0,1,0,1.061L.53,6.259A.748.748,0,0,1,0,6.478Z" transform="translate(6.469 0)"/></g></svg>