<svg xmlns="http://www.w3.org/2000/svg" xmlns:xlink="http://www.w3.org/1999/xlink" width="804" height="482" viewBox="0 0 804 482"><defs><style>.a,.c{fill:#fff;}.a{stroke:#707070;}.b{clip-path:url(#a);}</style><clipPath id="a"><rect class="a" width="804" height="482" transform="translate(-7317 -6486)"/></clipPath></defs><g class="b" transform="translate(7317 6486)"><g transform="translate(-6797.227 -6456.032) rotate(90)"><path class="c" d="M334.639,29.968H0A29.968,29.968,0,0,1-29.968,0,29.968,29.968,0,0,1,0-29.968H334.639A29.968,29.968,0,0,1,364.607,0,29.968,29.968,0,0,1,334.639,29.968Z" transform="translate(0 117.753)"/><path class="c" d="M334.639,29.968H0A29.968,29.968,0,0,1-29.968,0,29.968,29.968,0,0,1,0-29.968H334.639A29.968,29.968,0,0,1,364.607,0,29.968,29.968,0,0,1,334.639,29.968Z" transform="translate(422.065 285.092) rotate(-90)"/><path class="c" d="M0,258.841a29.892,29.892,0,0,1-21.182-8.8,29.968,29.968,0,0,1,0-42.27l93.1-93.339-93.1-93.259a29.968,29.968,0,0,1,0-42.354,29.968,29.968,0,0,1,42.354,0L135.614,93.259a29.968,29.968,0,0,1,0,42.394L21.177,250.09A29.888,29.888,0,0,1,0,258.841Z" transform="translate(258.481)"/></g></g></svg>