<!DOCTYPE svg PUBLIC "-//W3C//DTD SVG 1.1//EN" "http://www.w3.org/Graphics/SVG/1.1/DTD/svg11.dtd">

<!-- Uploaded to: SVG Repo, www.svgrepo.com, Transformed by: SVG Repo Mixer Tools -->
<svg version="1.1" id="Layer_1" xmlns="http://www.w3.org/2000/svg" xmlns:xlink="http://www.w3.org/1999/xlink" viewBox="-28.77 -28.77 345.26 345.26" xml:space="preserve" width="800px" height="800px" fill="#fff" stroke="#fff" stroke-width="0.00287724">

<g id="SVGRepo_bgCarrier" stroke-width="0">

<path transform="translate(-28.77, -28.77), scale(21.57875)" fill="#fff" d="M9.166.33a2.25 2.25 0 00-2.332 0l-5.25 3.182A2.25 2.25 0 00.5 5.436v5.128a2.25 2.25 0 001.084 1.924l5.25 3.182a2.25 2.25 0 002.332 0l5.25-3.182a2.25 2.25 0 001.084-1.924V5.436a2.25 2.25 0 00-1.084-1.924L9.166.33z" strokewidth="0"/>

</g>

<g id="SVGRepo_tracerCarrier" stroke-linecap="round" stroke-linejoin="round" stroke="#CCCCCC" stroke-width="0.575448"/>

<g id="SVGRepo_iconCarrier"> <g> <g> <g> <path style="#fffill:#fff;" d="M115.617,134.275c0,0,27.311-1.821,27.311-33.684s-21.849-47.339-50.07-47.339H40.967h-1.821H0 v178.433h39.146h1.821h51.891c0,0,56.443,1.821,56.443-52.802C149.301,177.973,152.032,134.275,115.617,134.275z M40.967,84.205 h45.519h6.373c0,0,12.745,0,12.745,18.207s-7.283,21.849-16.387,21.849h-48.25C40.967,124.261,40.967,84.205,40.967,84.205z M90.127,198.911h-49.16v-47.339h51.891c0,0,19.118,0,19.118,24.58C111.976,196.18,97.41,198.911,90.127,198.911z"/> <g> <path style="#fffill:#fff;" d="M224.862,97.86c-68.278,0-68.278,68.278-68.278,68.278s-4.552,68.278,68.278,68.278 c0,0,60.995,3.641,60.995-47.339h-31.863c0,0,0.91,19.118-28.222,19.118c0,0-31.863,1.821-31.863-30.953h92.858 C287.677,175.242,297.692,97.86,224.862,97.86z M253.083,151.572H194.82c0,0,3.641-27.311,31.863-27.311 C253.083,124.261,253.083,151.572,253.083,151.572z"/> <rect x="186.626" y="63.266" style="#fffill:#fff;" width="73.74" height="21.849"/> </g> </g> </g> </g> </g>

</svg>