<svg xmlns="http://www.w3.org/2000/svg" xmlns:xlink="http://www.w3.org/1999/xlink" width="57" height="57" viewBox="0 0 57 57">
  <defs>
    <filter id="Ellipse_1469" x="0" y="0" width="57" height="57" filterUnits="userSpaceOnUse">
      <feOffset input="SourceAlpha"/>
      <feGaussianBlur stdDeviation="3" result="blur"/>
      <feFlood flood-opacity="0.161"/>
      <feComposite operator="in" in2="blur"/>
      <feComposite in="SourceGraphic"/>
    </filter>
    <filter id="Ellipse_1469-2" x="0" y="0" width="57" height="57" filterUnits="userSpaceOnUse">
      <feOffset dy="3" input="SourceAlpha"/>
      <feGaussianBlur stdDeviation="3" result="blur-2"/>
      <feFlood flood-opacity="0.161" result="color"/>
      <feComposite operator="out" in="SourceGraphic" in2="blur-2"/>
      <feComposite operator="in" in="color"/>
      <feComposite operator="in" in2="SourceGraphic"/>
    </filter>
  </defs>
  <g id="Group_99251" data-name="Group 99251" transform="translate(-124 -847)">
    <g id="Group_93562" data-name="Group 93562" transform="translate(133 856)">
      <g data-type="innerShadowGroup">
        <g transform="matrix(1, 0, 0, 1, -9, -9)" filter="url(#Ellipse_1469)">
          <circle id="Ellipse_1469-3" data-name="Ellipse 1469" cx="19.5" cy="19.5" r="19.5" transform="translate(9 9)" fill="#eed23d"/>
        </g>
        <g transform="matrix(1, 0, 0, 1, -9, -9)" filter="url(#Ellipse_1469-2)">
          <circle id="Ellipse_1469-4" data-name="Ellipse 1469" cx="19.5" cy="19.5" r="19.5" transform="translate(9 9)" fill="#fff"/>
        </g>
      </g>
    </g>
    <path id="Path_205449" data-name="Path 205449" d="M207.493,74.852a7.942,7.942,0,0,0-7.932,7.934c0,2.842,3.171,8.393,5.83,12.548a2.494,2.494,0,0,0,4.205,0c2.66-4.155,5.83-9.706,5.83-12.548a7.942,7.942,0,0,0-7.932-7.934Zm0,12.259a4.331,4.331,0,1,1,3.058-1.269,4.327,4.327,0,0,1-3.058,1.269Zm2.885-4.327a2.888,2.888,0,1,1-.846-2.039,2.885,2.885,0,0,1,.846,2.039Z" transform="translate(-54.994 789.83)" fill="#fff"/>
  </g>
</svg>
