<svg xmlns="http://www.w3.org/2000/svg" width="10.646" height="10.646" viewBox="0 0 10.646 10.646"><defs><style>.a{fill:#e28929;}</style></defs><path class="a" d="M2.135,4.6A8.7,8.7,0,0,0,6.044,8.512l1.3-1.3a.509.509,0,0,1,.61-.139,6.619,6.619,0,0,0,2.107.333.578.578,0,0,1,.4.166.543.543,0,0,1,.18.416v2.079a.618.618,0,0,1-.582.582A9.9,9.9,0,0,1,5,9.3a9.932,9.932,0,0,1-3.66-3.66A9.9,9.9,0,0,1,0,.582.556.556,0,0,1,.18.18.558.558,0,0,1,.582,0H2.662a.542.542,0,0,1,.416.18.58.58,0,0,1,.166.4,6.619,6.619,0,0,0,.333,2.107.567.567,0,0,1-.139.61Z"/></svg>